# xmcd
#
# Track frame offsets:
#	150
#	24328
#	51608
#	74263
#	98585
#	115562
#	135052
#	159678
#	177248
#	195323
#
# Disc length: 2875 seconds
#
# Revision: 2
# Processed by: cddbd v1.5.2PL0 Copyright (c) Steve Scherf et al.
# Submitted via: EZCDAudioConverter 8.0.2.1
#
DISCID=770b390a
DTITLE=Hoàng Bách - Thoáng Mây Bay
DYEAR=2009
DGENRE=Contemporary Pop
TTITLE0=Hoàng Bách - Thoáng Mây Bay
TTITLE1=Hoàng Bách - Ai về sông Tương
TTITLE2=Hoàng Bách - Chiều tím
TTITLE3=Hoàng Bách - Chiều nay không có em
TTITLE4=Hoàng Bách, Phương Vy - Rồi mai tôi đưa em
TTITLE5=Hoàng Bách - Bây giờ tháng mấy
TTITLE6=Hoàng Bách - Dư âm
TTITLE7=Hoàng Bách - Bay đi cánh chim biển
TTITLE8=Hoàng Bách - Nếu xa nhau
TTITLE9=Hoàng Bách - Tưởng rằng đã quên
EXTD=
EXTT0=
EXTT1=
EXTT2=
EXTT3=
EXTT4=
EXTT5=
EXTT6=
EXTT7=
EXTT8=
EXTT9=
PLAYORDER=
